<?xml version="1.0" encoding="UTF-8"?>
<svg xmlns="http://www.w3.org/2000/svg" viewBox="0 0 470.78 496">
  <defs>
    <style>
      .cls-1 {
        fill: none;
        stroke: #fff;
        stroke-miterlimit: 10;
        stroke-width: 28px;
      }
    </style>
  </defs>
  <g id="Layer_2" data-name="Layer 2">
    <g>
      <path class="cls-1" d="M224,414c5.12-.04,13.09.03,18.75,0,3.58-.27,7.39.78,8.33-2.82,1.23-8.81,2.52-28.67,3.62-38.43.1-3.59,2.85-4.96,5.86-6.19,6.13-2.65,16.09-6.99,21.95-9.37,4.74-2.04,6.39.88,10.95,3.94,6.6,4.87,14.37,10.61,21.17,15.62,2.81,2.07,5.4,4.03,8.13,5.95,2.62,1.81,3.39,1.41,6.09-1.3,5.39-5.5,10.94-11.22,16.4-16.81,2.97-3.07,5.52-5.64,8.12-8.33,2.63-2.74,4.54-4.52,5.26-5.77.3-.53.41-1.01.32-1.53-.19-1-.83-1.8-1.48-2.74-4.24-5.62-16.57-21.67-22.36-29.26-1.86-2.63-3.74-4.14-3.36-7.18,1.87-7.99,6.62-22.55,8.83-30.28,1.06-3.67,1.93-5.02,6.47-5.21,10.67-.96,30.66-2.46,40.33-3.44,4.17-.18,3.49-4.9,3.6-7.94-.02-6.5.03-11.96,0-17.67-.02-4.66.03-10.8-.02-15.72-.13-4.32.17-6.85-5.54-6.97-12.16-1.02-26.66-2.16-38.38-3.14-5.15-.15-5.55-2.14-6.8-6.11-2.34-8.18-6.85-21.11-8.51-28.8-.2-2.98,1.75-4.44,3.58-7.02,5.84-7.47,17.88-22.77,22.1-28.23.95-1.37,2.14-2.68,1.19-4.26-.58-1.34-4.21-4.4-6.5-6.89-6.32-6.31-13.57-13.61-19.96-19.99-1.48-1.5-2.8-2.83-4.24-4.18-2.65-2.94-4.86-.54-7.93,1.59-8.51,6.12-18.01,12.98-26.41,19.03-5.37,3.79-6.88,6.09-12.61,3.33-5.5-2.26-15.49-6.46-21.39-8.99-1.37-.64-2.95-1.36-3.74-2.39-1.01-1.3-1.1-3.13-1.31-4.81-.7-7.48-2.26-24.93-3-32.84-.23-1.63-.2-3.38-1.22-4.59-2.02-1.62-4.3-1.08-7.55-1.25-5.67-.04-13.65.03-18.75,0"/>
      <path class="cls-1" d="M231,414c-5.19-.05-13.28.04-19.09,0-3.4-.15-5.83.43-7.99-1.15-1.06-1.19-1.02-2.95-1.24-4.56-.75-8.04-2.39-26.24-3.12-33.99-.24-3.93-1.07-5.66-4.85-7.15-7.56-3.12-18.23-7.92-25.65-10.5-1.55-.41-2.88-.14-4.22.72-1.56.95-3.81,2.65-6.78,4.76-7.53,5.37-16.38,11.76-24.04,17.23-1.65,1.2-3.16,2.27-4.74,3.36-3.26,2.64-4.94-.06-7.76-2.77-7.28-7.23-15.46-15.42-22.67-22.58-2.26-2.39-5.94-5.67-6.56-6.9-.96-1.59.32-2.93,1.27-4.28,4.44-5.7,17.17-21.8,23.1-29.33,2.42-2.98,4.32-5.13,3-8.83-2.49-8.25-6.57-22.04-9.47-30.59-.96-3.44-5.13-2.98-8.49-3.36-10.13-.84-23.29-1.88-33.88-2.75-3.56-.52-8.58.47-8.63-4.06-.4-7.04-.08-14.99-.17-21.85-.05-4.46.03-9.71,0-15.06.12-2.17-.23-4.73,1.04-6.53,1.08-1.11,2.81-1.06,4.36-1.25,9.54-.77,29.79-2.35,40.6-3.23,4.57-.11,5.05-2.35,6.2-5.87,1.99-6.29,6.07-19.24,7.96-25.3.7-2.41,1.57-4.78.01-6.99-7.5-9.85-17.76-21.98-25.71-32.1-2.13-2.75-1.99-3.52.55-6.06,2.59-2.55,5.17-5.05,7.88-7.68,5.9-5.77,13.2-12.81,18.82-18.3,2.83-2.71,4.32-4.38,5.63-4.57,1.36-.23,2.98,1.1,6.24,3.34,10.85,7.24,25.44,18.59,33.97,23.23,1.93.44,3.23-.26,5.42-1.03,3.34-1.29,8.44-3.45,12.27-4.98,3.64-1.51,7.26-2.9,10.77-4.43,3.35-1.49,4.05-2.52,4.45-5.96.76-7.39,1.42-15.07,2.14-22.53.28-3.02.55-5.88.78-8.29.66-4.7-.03-7.14,2.68-8.34,1.17-.36,2.61-.45,3.92-.46,6.54,0,15.24-.06,22.03-.03"/>
    </g>
  </g>
  <g id="Layer_3" data-name="Layer 3">
    <circle class="cls-1" cx="226.5" cy="248.5" r="60.5"/>
  </g>
</svg>